<svg width="32" height="33" viewBox="0 0 32 33" fill="none" xmlns="http://www.w3.org/2000/svg">
<path d="M1.01223 18.7122L3.35451 21.0544C3.35803 21.058 3.36155 21.0615 3.36514 21.0651L6.17253 23.8724C6.17579 23.8758 6.17904 23.879 6.18236 23.8823L8.98956 26.6895C8.99274 26.6927 8.996 26.696 8.99925 26.6992L11.8072 29.5072C11.8104 29.5104 11.8136 29.5135 11.8168 29.5167L14.16 31.8599C14.2845 31.9844 14.4534 32.0544 14.6295 32.0544C14.8056 32.0544 14.9746 31.9844 15.0991 31.8599L22.6116 24.3476L23.5515 23.4082C24.8457 22.1133 24.8456 20.0068 23.5514 18.7126L21.6727 16.834C21.5473 16.7085 21.4783 16.5419 21.4783 16.3646C21.4783 16.1873 21.5473 16.0206 21.6727 15.8952L22.5991 14.9688L30.6436 7.76425C30.644 7.76398 30.6442 7.76365 30.6445 7.76339C30.7127 7.70316 30.7751 7.64478 30.8349 7.58508C32.3884 6.03157 32.3884 3.50381 30.8349 1.9503C30.0835 1.19898 29.0829 0.785135 28.0175 0.785135C26.9522 0.785135 25.9515 1.19891 25.2003 1.95017C25.1395 2.01086 25.0797 2.07481 25.0173 2.1456C25.0172 2.14574 25.0171 2.14593 25.0169 2.14613C25.0166 2.14647 25.0163 2.1468 25.016 2.14713L17.9005 10.2759L16.9771 11.1995C16.7182 11.4583 16.2971 11.4582 16.0381 11.1994L14.1597 9.32168C13.5326 8.69414 12.6988 8.34856 11.812 8.34856C10.9252 8.34856 10.0914 8.69414 9.46463 9.32134L8.52478 10.2605L1.01229 17.773C0.752977 18.0323 0.752977 18.4528 1.01223 18.7122ZM26.0152 3.02197C26.0583 2.97316 26.0988 2.9298 26.1392 2.88949C26.6398 2.38892 27.3068 2.11333 28.0174 2.11333C28.7281 2.11333 29.3951 2.38892 29.8956 2.88949C30.9313 3.92516 30.9313 5.61029 29.8957 6.64577C29.8545 6.68694 29.8106 6.72798 29.7615 6.77127C29.7609 6.77187 29.7603 6.77254 29.7596 6.77313C29.7589 6.7738 29.7582 6.77426 29.7574 6.77493L22.1672 13.5726L19.2944 10.6998L26.0152 3.02197ZM10.4037 10.2604C10.7799 9.88394 11.2801 9.67662 11.812 9.67662C12.3439 9.67662 12.844 9.88394 13.2204 10.2607L15.099 12.1386C15.8756 12.9152 17.1394 12.9151 17.9161 12.1386L18.3855 11.6691L21.203 14.4866L20.7336 14.9559C20.3573 15.3323 20.1501 15.8325 20.1501 16.3645C20.1501 16.8966 20.3574 17.3968 20.7336 17.7731L22.6122 19.6517C23.3888 20.4282 23.3887 21.6923 22.6124 22.469L22.1423 22.9388L9.93366 10.7301L10.4037 10.2604ZM8.99428 11.6691L21.203 23.8778L14.6297 30.4512L13.2207 29.0423L16.5076 25.7559C16.767 25.4966 16.767 25.0761 16.5077 24.8167C16.378 24.6871 16.2081 24.6222 16.0381 24.6222C15.8681 24.6222 15.6982 24.6871 15.5686 24.8167L12.2815 28.1031L10.403 26.2246L13.69 22.9382C13.9494 22.679 13.9494 22.2585 13.6901 21.9991C13.5604 21.8694 13.3904 21.8046 13.2204 21.8046C13.0505 21.8046 12.8806 21.8694 12.7509 21.9991L9.4639 25.2855L7.58606 23.4077L10.873 20.1213C11.1324 19.862 11.1324 19.4415 10.873 19.1822C10.7434 19.0525 10.5734 18.9876 10.4034 18.9876C10.2335 18.9876 10.0636 19.0525 9.93392 19.1821L6.64694 22.4685L4.76844 20.59L8.05535 17.3037C8.31474 17.0444 8.31474 16.6239 8.05542 16.3645C7.92573 16.2348 7.75579 16.17 7.58579 16.17C7.41586 16.17 7.24593 16.2348 7.1163 16.3645L3.82925 19.6509L2.42084 18.2425L8.99428 11.6691Z" fill="#163993"/>
</svg>
