<svg width="41" height="29" viewBox="0 0 41 29" fill="none" xmlns="http://www.w3.org/2000/svg">
<path d="M35.4592 12.6971C36.6599 11.7619 37.4549 10.2062 37.4549 8.45274C37.4549 5.58421 35.3619 3.2642 32.774 3.2642C30.1862 3.2642 28.0932 5.58421 28.0932 8.45274C28.0932 10.2062 28.8801 11.7619 30.0888 12.6971C29.0586 13.0928 28.1175 13.7042 27.3225 14.4956C26.2273 13.4614 24.9375 12.6701 23.5259 12.2025C25.2376 11.0515 26.3896 8.95631 26.3896 6.57336C26.3896 2.94048 23.7368 0 20.4594 0C17.182 0 14.5293 2.94947 14.5293 6.57336C14.5293 8.95631 15.6731 11.0515 17.393 12.2025C15.9976 12.6701 14.724 13.4525 13.6369 14.4686C12.8419 13.6952 11.9171 13.0928 10.903 12.7061C12.1037 11.7709 12.8987 10.2152 12.8987 8.46174C12.8987 5.5932 10.8057 3.27319 8.21785 3.27319C5.63 3.27319 3.537 5.5932 3.537 8.46174C3.537 10.2152 4.3239 11.7709 5.53265 12.7061C2.31203 13.938 0 17.3281 0 21.3117V21.9052C0 21.9232 0.0162248 21.9412 0.0324495 21.9412H9.9539C9.89711 22.4357 9.86466 22.9483 9.86466 23.4609V24.0723C9.86466 26.7161 11.7954 28.8562 14.1805 28.8562H26.7547C29.1397 28.8562 31.0704 26.7161 31.0704 24.0723V23.4609C31.0704 22.9483 31.038 22.4357 30.9812 21.9412H40.9676C40.9838 21.9412 41 21.9232 41 21.9052V21.3117C40.9838 17.3191 38.6799 13.929 35.4592 12.6971ZM29.3912 8.44375C29.3912 6.37553 30.9082 4.69397 32.774 4.69397C34.6399 4.69397 36.1569 6.37553 36.1569 8.44375C36.1569 10.485 34.6723 12.1486 32.8389 12.1935C32.8146 12.1935 32.7984 12.1935 32.774 12.1935C32.7497 12.1935 32.7335 12.1935 32.7091 12.1935C30.8676 12.1576 29.3912 10.494 29.3912 8.44375ZM15.811 6.57336C15.811 3.74079 17.8878 1.43877 20.4432 1.43877C22.9986 1.43877 25.0754 3.74079 25.0754 6.57336C25.0754 9.30701 23.1365 11.5461 20.7109 11.699C20.6217 11.699 20.5324 11.699 20.4432 11.699C20.354 11.699 20.2647 11.699 20.1755 11.699C17.7499 11.5461 15.811 9.30701 15.811 6.57336ZM4.81065 8.44375C4.81065 6.37553 6.32766 4.69397 8.19351 4.69397C10.0594 4.69397 11.5764 6.37553 11.5764 8.44375C11.5764 10.485 10.0918 12.1486 8.25841 12.1935C8.23407 12.1935 8.21785 12.1935 8.19351 12.1935C8.16917 12.1935 8.15295 12.1935 8.12861 12.1935C6.29521 12.1576 4.81065 10.494 4.81065 8.44375ZM10.181 20.4934H1.31421C1.67926 16.6627 4.59972 13.6593 8.14484 13.6323C8.16106 13.6323 8.17729 13.6323 8.19351 13.6323C8.20973 13.6323 8.22596 13.6323 8.24218 13.6323C9.92956 13.6413 11.4709 14.3337 12.6634 15.4577C11.4953 16.8605 10.6272 18.587 10.181 20.4934ZM29.7562 24.0723C29.7562 25.9158 28.4015 27.4175 26.7384 27.4175H14.1642C12.5012 27.4175 11.1464 25.9158 11.1464 24.0723V23.4609C11.1464 17.8767 15.1702 13.3086 20.1755 13.1467C20.2647 13.1557 20.3621 13.1557 20.4513 13.1557C20.5406 13.1557 20.6379 13.1557 20.7271 13.1467C25.7325 13.3086 29.7562 17.8767 29.7562 23.4609V24.0723ZM30.7216 20.4934C30.2754 18.596 29.4236 16.8965 28.2636 15.4937C29.4642 14.3427 31.0218 13.6503 32.7254 13.6323C32.7416 13.6323 32.7578 13.6323 32.774 13.6323C32.7903 13.6323 32.8065 13.6323 32.8227 13.6323C36.3678 13.6593 39.2883 16.6627 39.6533 20.4934H30.7216Z" fill="#163993"/>
</svg>
