<svg width="35" height="36" viewBox="0 0 35 36" fill="none" xmlns="http://www.w3.org/2000/svg">
<path d="M28.5833 4.35042H25.6632C24.4107 1.75583 22.6199 0.273621 20.7083 0.273621C18.7868 0.273621 16.9872 1.77155 15.7342 4.39177C12.4763 4.80469 9.91667 8.5437 9.91667 13.0864C9.87923 15.2268 10.4986 17.3274 11.6917 19.1061C11.0277 20.0076 10.5388 21.0253 10.2503 22.1066C10.1156 22.6232 10.017 23.1509 9.91725 23.6616C9.80058 24.279 9.68392 24.8678 9.51533 25.4368C4.71508 25.8643 0 27.4962 0 30.2672C0 33.0895 5.26633 35.2176 12.25 35.2176C19.2337 35.2176 24.5 33.0895 24.5 30.2672C24.5 27.838 20.5211 25.8806 14.7583 25.4217C14.8126 25.0268 14.8855 24.6284 14.959 24.2353L15.0098 23.9651C15.1437 23.2154 15.3362 22.4774 15.5855 21.7578C15.8327 21.7988 16.0827 21.8204 16.3333 21.8224H28.5833C32.1213 21.8224 35 17.9035 35 13.0864C35 8.26939 32.1213 4.35042 28.5833 4.35042ZM20.7083 1.43842C22.0383 1.43842 23.3392 2.48674 24.3547 4.35042H17.0631C18.0775 2.48674 19.3783 1.43842 20.7083 1.43842ZM16.3333 5.51522C19.2284 5.51522 21.5833 8.91178 21.5833 13.0864C21.5833 17.2611 19.2284 20.6576 16.3333 20.6576C16.24 20.6576 16.1467 20.6541 16.0539 20.6466C16.0662 20.6221 16.0784 20.5976 16.0912 20.5732C16.4484 19.9537 16.9826 19.4546 17.6254 19.1399C18.0478 18.8981 18.4232 18.5824 18.7337 18.208C18.7529 18.1898 18.7708 18.1704 18.7874 18.1498C18.8909 18.0256 18.9898 17.8953 19.0843 17.759C19.7831 16.7093 20.2146 15.5052 20.3414 14.2512V14.2419C20.3921 13.8588 20.4172 13.4728 20.4167 13.0864C20.4167 9.25423 18.3056 6.68002 16.3333 6.68002C14.3611 6.68002 12.25 9.25423 12.25 13.0864C12.2254 14.5652 12.5888 16.0247 13.3041 17.3199C13.2384 17.3793 13.1734 17.4389 13.1092 17.4987C13.0556 17.5488 13.0042 17.5989 12.9517 17.6495C12.81 17.787 12.6735 17.9256 12.5434 18.0671C12.5142 18.098 12.4816 18.1253 12.453 18.1591C11.5346 16.6275 11.0605 14.8713 11.0833 13.0864C11.0833 8.91178 13.4382 5.51522 16.3333 5.51522ZM14.2298 16.5808C13.6761 15.5001 13.3969 14.3001 13.4167 13.0864C13.4167 9.83896 15.1153 7.84482 16.3333 7.84482C17.5513 7.84482 19.25 9.83896 19.25 13.0864C19.2509 13.4284 19.2289 13.7701 19.1841 14.1091C19.1701 14.2308 19.1403 14.345 19.1211 14.4638C18.9373 14.5255 18.7582 14.5861 18.5605 14.6502C17.0284 15.0739 15.5686 15.7247 14.2298 16.5808ZM23.3333 30.2672C23.3333 32.0575 18.7833 34.0528 12.25 34.0528C5.71667 34.0528 1.16667 32.0575 1.16667 30.2672C1.16667 28.8619 4.08742 27.1921 9.03058 26.6517C8.99442 26.7187 8.96292 26.7903 8.92442 26.8549C8.46047 27.7631 7.49697 28.3057 6.4785 28.2323C6.32436 28.2141 6.16936 28.2586 6.04858 28.356C5.92781 28.4533 5.85146 28.5952 5.83683 28.7495C5.8028 29.0692 6.03466 29.3559 6.35483 29.3901C6.48443 29.4043 6.61471 29.4113 6.74508 29.4111C8.08549 29.3856 9.30565 28.6335 9.92892 27.4484C10.167 27.0441 10.3615 26.6158 10.5093 26.1706V26.1665C10.7473 25.4191 10.9319 24.6558 11.0617 23.8824C11.1597 23.3675 11.2525 22.8818 11.3779 22.4025C11.6611 21.3322 12.1671 20.3336 12.8631 19.4719C13.3295 18.8893 13.8556 18.357 14.4328 17.8836C15.7424 16.9287 17.2173 16.2232 18.7833 15.8027C18.7705 15.8371 18.7629 15.8761 18.7495 15.9099C18.7361 15.9437 18.7168 15.9763 18.7022 16.0118C18.6107 16.2436 18.5048 16.4694 18.3849 16.688C18.3301 16.7852 18.2624 16.8668 18.2023 16.9582C18.1137 17.0945 18.0273 17.2372 17.9317 17.3595L17.9247 17.3665L17.9182 17.3735C17.9064 17.3847 17.8951 17.3966 17.8844 17.409C17.6558 17.6954 17.3759 17.9369 17.059 18.1213C16.2141 18.5445 15.5163 19.2117 15.0564 20.0362C14.9217 20.2936 14.7933 20.5738 14.6732 20.869C14.3064 21.8003 14.0356 22.7665 13.8647 23.7525L13.8145 24.0204C13.4812 25.2815 13.4375 26.6014 13.6867 27.8817C13.9288 28.8399 14.6339 29.6142 15.5662 29.9457C15.8723 30.0474 16.2029 29.8821 16.3048 29.5765C16.4066 29.2709 16.241 28.9408 15.9349 28.8392C15.375 28.6266 14.9553 28.1532 14.812 27.5725C14.7278 27.2491 14.6843 26.9165 14.6825 26.5824C20.0381 27.0163 23.3333 28.7961 23.3333 30.2672ZM28.5833 20.6576H19.5207C21.4474 19.1486 22.75 16.3234 22.75 13.0864C22.75 9.84944 21.4474 7.02422 19.5207 5.51522H24.9042C25.6587 7.41362 26.0956 9.42286 26.1975 11.4627C25.3986 11.769 24.9371 12.6057 25.1049 13.4435C25.2727 14.2814 26.0209 14.8766 26.8764 14.8526C27.7318 14.8287 28.4455 14.1927 28.5661 13.3468C28.6867 12.5008 28.179 11.6913 27.3642 11.4301C27.2622 9.4097 26.8577 7.41597 26.1642 5.51522H28.5833C31.4784 5.51522 33.8333 8.91178 33.8333 13.0864C33.8333 17.2611 31.4784 20.6576 28.5833 20.6576ZM26.8333 12.504C27.1555 12.504 27.4167 12.7648 27.4167 13.0864C27.4167 13.4081 27.1555 13.6688 26.8333 13.6688C26.5112 13.6688 26.25 13.4081 26.25 13.0864C26.25 12.7648 26.5112 12.504 26.8333 12.504Z" fill="#163993"/>
</svg>
