<svg width="57" height="69" viewBox="0 0 57 69" fill="none" xmlns="http://www.w3.org/2000/svg">
<path d="M53.2245 30.8V28C53.2245 26.8954 52.3291 26 51.2245 26H28C26.8954 26 26 26.8954 26 28V33.6C26 34.7046 26.8954 35.6 28 35.6H51.2245C52.3291 35.6 53.2245 34.7046 53.2245 33.6V30.8ZM53.2245 30.8H54C55.1046 30.8 56 31.6954 56 32.8V36.757C56 37.5182 55.568 38.2133 54.8855 38.5503L41.3186 45.2497C40.6361 45.5867 40.2041 46.2818 40.2041 47.043V51.2M42.5714 54.6L43.0684 53.2563C43.1312 53.0868 43.1633 52.9075 43.1633 52.7267V52.7267C43.1633 51.8835 42.4797 51.2 41.6366 51.2H38.7716C37.9284 51.2 37.2449 51.8835 37.2449 52.7267V52.7267C37.2449 52.9075 37.277 53.0868 37.3397 53.2563L37.8367 54.6M42.5714 54.6L43.071 65.9118C43.1213 67.0498 42.2122 68 41.073 68H39.3352C38.196 68 37.2869 67.0498 37.3371 65.9118L37.8367 54.6M42.5714 54.6H37.8367" stroke="#3C445E" stroke-width="2"/>
<path opacity="0.6" d="M41 20V9.09091C41 6.83156 39.1684 5 36.9091 5V5C34.6497 5 32.8182 6.83156 32.8182 9.09091V15.7273C32.8182 16.9825 31.8006 18 30.5455 18V18C29.2903 18 28.2727 16.9825 28.2727 15.7273V15.5C28.2727 14.1193 27.1534 13 25.7727 13H25.5455C24.0392 13 22.8182 14.221 22.8182 15.7273V17C22.8182 19.2091 21.0273 21 18.8182 21H18.7273C16.4679 21 14.6364 19.1684 14.6364 16.9091V4.18182C14.6364 2.42455 13.2118 1 11.4545 1V1C9.69728 1 8.27273 2.42455 8.27273 4.18182V10.3636C8.27273 12.3719 6.64467 14 4.63636 14V14C2.62806 14 1 15.6281 1 17.6364V53C1 55.7614 3.23858 58 6 58H7.5C9.433 58 11 56.433 11 54.5V53.2727C11 52.0175 12.0175 51 13.2727 51V51C14.5279 51 15.5455 52.0175 15.5455 53.2727V61.2727C15.5455 62.779 16.7665 64 18.2727 64V64C19.779 64 21 62.779 21 61.2727V46.7273C21 45.221 22.221 44 23.7273 44V44C25.2335 44 26.4545 45.221 26.4545 46.7273V48.5C26.4545 50.9853 28.4693 53 30.9545 53H31.1818" stroke="#FFB932" stroke-width="1.5"/>
</svg>
