<svg width="124" height="53" viewBox="0 0 124 53" fill="none" xmlns="http://www.w3.org/2000/svg">
<path opacity="0.6" d="M42.3293 37H15.2925C14.7489 37 14.2287 37.2213 13.8517 37.6128L5.29531 46.5M80.1767 37H108.708C109.251 37 109.771 37.2213 110.148 37.6128L118.705 46.5M5.29531 46.5L3.2611 48.6128C2.03792 49.8833 2.93828 52 4.70186 52H119.298C121.062 52 121.962 49.8833 120.739 48.6128L118.705 46.5M5.29531 46.5H49M53.5 46.5H59M63.5 46.5H118.705" stroke="#FFB932" stroke-width="1.5"/>
<path d="M50.101 27.8481V27.8481C48.9407 27.8481 48 28.7888 48 29.9491V35C48 37.7614 50.2386 40 53 40H76L75.5171 39.2886C74.5048 37.7973 73.9636 36.0364 73.9636 34.234V29.8602C73.9636 28.749 73.0628 27.8481 71.9515 27.8481V27.8481M50.101 27.8481V26.2658C50.101 23.5044 52.3396 21.2658 55.101 21.2658H55.4464C56.6326 21.2658 57.5582 20.2393 57.4358 19.0595L56.2206 7.34541C56.0708 5.90128 56.5783 4.46633 57.6028 3.43758V3.43758C59.4913 1.54136 62.5613 1.54136 64.4497 3.43758V3.43758C65.4742 4.46633 65.9818 5.90128 65.8319 7.34541L64.6168 19.0595C64.4944 20.2393 65.4199 21.2658 66.6061 21.2658H66.9515C69.7129 21.2658 71.9515 23.5044 71.9515 26.2658V27.8481M50.101 27.8481H71.9515M50.5455 25H71.4182" stroke="#3C445E" stroke-width="2"/>
<path d="M71.0364 40L70.5535 39.2886C69.5412 37.7973 69 36.0364 69 34.234V34" stroke="#3C445E" stroke-width="2"/>
<path d="M67.0364 40L66.1232 38.6548C65.3913 37.5765 65 36.3033 65 35V35" stroke="#3C445E" stroke-width="2"/>
</svg>
