<svg width="66" height="63" viewBox="0 0 66 63" fill="none" xmlns="http://www.w3.org/2000/svg">
<path d="M62.2245 24.8V22C62.2245 20.8954 61.3291 20 60.2245 20H37C35.8954 20 35 20.8954 35 22V27.6C35 28.7046 35.8954 29.6 37 29.6H60.2245C61.3291 29.6 62.2245 28.7046 62.2245 27.6V24.8ZM62.2245 24.8H63C64.1046 24.8 65 25.6954 65 26.8V30.757C65 31.5182 64.568 32.2133 63.8855 32.5503L50.3186 39.2497C49.6361 39.5867 49.2041 40.2818 49.2041 41.043V45.2M51.5714 48.6L52.0684 47.2563C52.1312 47.0868 52.1633 46.9075 52.1633 46.7267V46.7267C52.1633 45.8835 51.4797 45.2 50.6366 45.2H47.7716C46.9284 45.2 46.2449 45.8835 46.2449 46.7267V46.7267C46.2449 46.9075 46.277 47.0868 46.3397 47.2563L46.8367 48.6M51.5714 48.6L52.071 59.9118C52.1213 61.0498 51.2122 62 50.073 62H48.3352C47.196 62 46.2869 61.0498 46.3371 59.9118L46.8367 48.6M51.5714 48.6H46.8367" stroke="#3C445E" stroke-width="2"/>
<path opacity="0.6" d="M1.61586 2.34655L2.09599 1.77038L1.61586 2.34655ZM44.2765 1.23043L44.7567 0.654262L44.2765 1.23043ZM50.75 14V13.4503H49.25V14H50.75ZM43.6401 0.25H2.10337V1.75H43.6401V0.25ZM5.25 11.7069V37.7804H6.75V11.7069H5.25ZM2.26566 50.75H40.5V49.25H2.26566V50.75ZM1.07174 47.8676C0.00806037 48.9313 0.761397 50.75 2.26566 50.75V49.25C2.09776 49.25 2.01367 49.047 2.1324 48.9283L1.07174 47.8676ZM5.25 37.7804C5.25 41.5638 3.74703 45.1923 1.07174 47.8676L2.1324 48.9283C5.089 45.9717 6.75 41.9616 6.75 37.7804H5.25ZM1.13572 2.92271C3.74268 5.09518 5.25 8.31337 5.25 11.7069H6.75C6.75 7.8682 5.04495 4.22784 2.09599 1.77038L1.13572 2.92271ZM2.10337 0.25C0.689648 0.25 0.0496633 2.01767 1.13572 2.92271L2.09599 1.77038C2.08826 1.76394 2.08691 1.76094 2.0879 1.76254C2.08876 1.76393 2.08968 1.76606 2.09014 1.768C2.09053 1.76961 2.09023 1.76947 2.09037 1.76732C2.09051 1.76503 2.0911 1.76158 2.09254 1.7576C2.09398 1.75363 2.09574 1.7506 2.09709 1.74875C2.09836 1.74701 2.09868 1.74709 2.09735 1.74808C2.09576 1.74927 2.09369 1.75033 2.09214 1.75084C2.09035 1.75144 2.0933 1.75 2.10337 1.75V0.25ZM44.7567 0.654262C44.4432 0.39305 44.0481 0.25 43.6401 0.25V1.75C43.6972 1.75 43.7525 1.77003 43.7964 1.80659L44.7567 0.654262ZM50.75 13.4503C50.75 8.50693 48.5543 3.81894 44.7567 0.654262L43.7964 1.80659C47.252 4.68628 49.25 8.9521 49.25 13.4503H50.75Z" fill="#FFB932"/>
</svg>
