<svg width="87" height="57" viewBox="0 0 87 57" fill="none" xmlns="http://www.w3.org/2000/svg">
<path d="M66.7245 18.3V15.5C66.7245 14.3954 65.8291 13.5 64.7245 13.5H41.5C40.3954 13.5 39.5 14.3954 39.5 15.5V21.1C39.5 22.2046 40.3954 23.1 41.5 23.1H64.7245C65.8291 23.1 66.7245 22.2046 66.7245 21.1V18.3ZM66.7245 18.3H67.5C68.6046 18.3 69.5 19.1954 69.5 20.3V24.257C69.5 25.0182 69.068 25.7133 68.3855 26.0503L54.8186 32.7497C54.1361 33.0867 53.7041 33.7818 53.7041 34.543V38.7M56.0714 42.1L56.5684 40.7563C56.6312 40.5868 56.6633 40.4075 56.6633 40.2267V40.2267C56.6633 39.3835 55.9797 38.7 55.1366 38.7H52.2716C51.4284 38.7 50.7449 39.3835 50.7449 40.2267V40.2267C50.7449 40.4075 50.777 40.5868 50.8397 40.7563L51.3367 42.1M56.0714 42.1L56.571 53.4118C56.6213 54.5498 55.7122 55.5 54.573 55.5H52.8352C51.696 55.5 50.7869 54.5498 50.8371 53.4118L51.3367 42.1M56.0714 42.1H51.3367" stroke="#3C445E" stroke-width="2"/>
<path opacity="0.6" d="M62 40.5H68.1986C68.9898 40.5 69.7067 40.0335 70.0272 39.3101L85.755 3.81013C86.3409 2.48779 85.3727 1 83.9264 1H3.18137C1.70796 1 0.740351 2.53915 1.37904 3.86695L18.455 39.3669C18.7881 40.0596 19.4887 40.5 20.2573 40.5H45.5" stroke="#FFB932" stroke-width="1.5"/>
</svg>
