<svg width="25" height="25" viewBox="0 0 25 25" fill="none" xmlns="http://www.w3.org/2000/svg">
<mask id="path-1-inside-1" fill="white">
<path fill-rule="evenodd" clip-rule="evenodd" d="M23.692 12.4999C24.5193 11.2312 25 9.71584 25 8.08824C25 3.62123 21.3788 0 16.9118 0C15.2841 0 13.7688 0.480767 12.5 1.30804C11.2312 0.480767 9.71587 0 8.08824 0C3.62123 0 0 3.62123 0 8.08824C0 9.71584 0.480749 11.2312 1.30799 12.4999C0.480749 13.7687 0 15.284 0 16.9116C0 21.3786 3.62123 24.9999 8.08824 24.9999C9.71587 24.9999 11.2312 24.5191 12.5 23.6918C13.7688 24.5191 15.2841 24.9999 16.9118 24.9999C21.3788 24.9999 25 21.3786 25 16.9116C25 15.284 24.5193 13.7687 23.692 12.4999Z"/>
</mask>
<path d="M23.692 12.4999L22.4355 11.6807L21.9013 12.4999L22.4355 13.3192L23.692 12.4999ZM12.5 1.30804L11.6807 2.56455L12.5 3.09872L13.3193 2.56455L12.5 1.30804ZM1.30799 12.4999L2.56451 13.3192L3.09866 12.4999L2.56451 11.6807L1.30799 12.4999ZM12.5 23.6918L13.3193 22.4353L12.5 21.9011L11.6807 22.4353L12.5 23.6918ZM23.5 8.08824C23.5 9.41619 23.1087 10.6482 22.4355 11.6807L24.9485 13.3192C25.9298 11.8141 26.5 10.0155 26.5 8.08824H23.5ZM16.9118 1.5C20.5504 1.5 23.5 4.44965 23.5 8.08824H26.5C26.5 2.7928 22.2072 -1.5 16.9118 -1.5V1.5ZM13.3193 2.56455C14.3518 1.89133 15.5838 1.5 16.9118 1.5V-1.5C14.9845 -1.5 13.1858 -0.929799 11.6807 0.0515336L13.3193 2.56455ZM8.08824 1.5C9.41622 1.5 10.6482 1.89133 11.6807 2.56455L13.3193 0.0515336C11.8142 -0.929799 10.0155 -1.5 8.08824 -1.5V1.5ZM1.5 8.08824C1.5 4.44965 4.44965 1.5 8.08824 1.5V-1.5C2.7928 -1.5 -1.5 2.7928 -1.5 8.08824H1.5ZM2.56451 11.6807C1.89132 10.6482 1.5 9.41619 1.5 8.08824H-1.5C-1.5 10.0155 -0.92982 11.8141 0.0514782 13.3192L2.56451 11.6807ZM1.5 16.9116C1.5 15.5837 1.89132 14.3517 2.56451 13.3192L0.0514782 11.6807C-0.92982 13.1857 -1.5 14.9844 -1.5 16.9116H1.5ZM8.08824 23.4999C4.44965 23.4999 1.5 20.5502 1.5 16.9116H-1.5C-1.5 22.2071 2.7928 26.4999 8.08824 26.4999V23.4999ZM11.6807 22.4353C10.6482 23.1085 9.41622 23.4999 8.08824 23.4999V26.4999C10.0155 26.4999 11.8142 25.9297 13.3193 24.9483L11.6807 22.4353ZM16.9118 23.4999C15.5838 23.4999 14.3518 23.1085 13.3193 22.4353L11.6807 24.9483C13.1858 25.9297 14.9845 26.4999 16.9118 26.4999V23.4999ZM23.5 16.9116C23.5 20.5502 20.5504 23.4999 16.9118 23.4999V26.4999C22.2072 26.4999 26.5 22.2071 26.5 16.9116H23.5ZM22.4355 13.3192C23.1087 14.3517 23.5 15.5837 23.5 16.9116H26.5C26.5 14.9844 25.9298 13.1857 24.9485 11.6807L22.4355 13.3192Z" fill="#9FB4FF" mask="url(#path-1-inside-1)"/>
</svg>
