<svg width="28" height="28" viewBox="0 0 28 28" fill="none" xmlns="http://www.w3.org/2000/svg">
<path d="M20.4846 0.836176C19.6248 -0.0217673 18.2327 -0.0217673 17.3729 0.836176L1.14005 17.069C0.282093 17.9287 0.282093 19.3207 1.14005 20.1803L7.51518 26.5555C7.92766 26.9684 8.4877 27.2 9.07136 27.1989C9.08677 27.1989 9.10189 27.1948 9.11729 27.1945C9.12682 27.1949 9.13478 27.2 9.14442 27.2H22.3444C22.7494 27.2 23.0778 26.8717 23.0778 26.4667C23.0778 26.0616 22.7494 25.7333 22.3444 25.7333H11.449L26.8597 10.3226C27.7177 9.46293 27.7177 8.07096 26.8597 7.2113L20.4846 0.836176ZM18.9284 1.65867C19.1231 1.65832 19.3099 1.7355 19.4476 1.87315L25.8227 8.24828C26.1085 8.53503 26.1085 8.99887 25.8227 9.28561L24.9831 10.1253L24.982 10.126L14.7039 20.4041L7.29174 12.9917L17.5699 2.71355L17.5706 2.71247L18.4099 1.87315C18.5474 1.73564 18.7339 1.65847 18.9284 1.65867ZM2.17703 19.1434C1.89128 18.8566 1.89128 18.3928 2.17703 18.106L6.25458 14.0285L13.667 21.4413L9.58985 25.5185C9.30319 25.8047 8.83885 25.8047 8.55219 25.5185L2.17703 19.1434Z" fill="#656F86"/>
</svg>
