<svg width="24" height="28" viewBox="0 0 24 28" fill="none" xmlns="http://www.w3.org/2000/svg">
<path d="M20.4231 1.11187C19.7335 0.426557 18.8015 0.0409312 17.8293 0.0387296H9.71818C8.94976 0.0347569 8.19985 0.274447 7.57619 0.723369C6.62515 1.42053 5.66623 2.1818 4.7245 2.9871C3.23126 4.11371 1.98563 5.53534 1.065 7.16366C0.173983 8.72806 0.373726 10.6855 1.56236 12.0377C1.47655 12.4615 1.49188 12.8996 1.60709 13.3164C1.83858 14.167 2.42897 14.8747 3.22432 15.2549C3.06653 15.8217 3.03131 16.4156 3.12102 16.9971C3.25573 17.8464 3.74117 18.6 4.45878 19.0739L1.27265 23.3575C0.755045 24.0625 0.698714 25.0054 1.1287 25.767C1.60216 26.6591 2.53441 27.2118 3.54429 27.1993C3.57374 27.1993 3.60606 27.1912 3.63586 27.1904C3.65243 27.1915 3.66639 27.2 3.68322 27.2H18.3499C18.7549 27.2 19.0832 26.8717 19.0832 26.4666C19.0832 26.0616 18.7549 25.7333 18.3499 25.7333H6.4121C6.42875 25.7123 6.44907 25.6959 6.46545 25.6746L10.3423 20.6164L12.7296 21.2993C14.5247 21.8121 16.4568 21.311 17.7763 19.9902L22.4105 15.3489C23.0956 14.6591 23.481 13.7271 23.4833 12.755V5.69306C23.481 4.72093 23.0956 3.78889 22.4105 3.09918L20.4231 1.11187ZM22.0166 12.755C22.0155 13.3386 21.7842 13.8983 21.3727 14.3123L16.7386 18.9536C15.7956 19.897 14.4154 20.2551 13.1328 19.8892L11.3012 19.3652L13.1866 16.9054C13.5481 16.9576 13.9127 16.9854 14.2779 16.9885C15.1895 17.0957 16.0912 16.7204 16.6576 15.9981C17.3476 14.9594 16.81 13.5323 16.3706 12.6866C16.4979 12.3838 16.4052 12.0332 16.1449 11.833C15.99 11.7153 15.7946 11.6642 15.602 11.6908C15.4093 11.7174 15.2351 11.8196 15.1179 11.9748L5.30099 24.783C4.96629 25.2433 4.47683 25.5675 3.92241 25.6961C3.32269 25.8698 2.68411 25.5932 2.40061 25.0369C2.25805 24.7806 2.27849 24.4646 2.45289 24.2287L10.8783 12.8996C11.0353 12.6896 11.0682 12.4117 10.9645 12.1709C10.8609 11.93 10.6365 11.7629 10.376 11.7325C10.1155 11.7022 9.8587 11.8132 9.70243 12.0238L5.3352 17.8956C4.92381 17.6469 4.643 17.2295 4.56766 16.7547C4.49193 16.1939 4.57713 15.6232 4.81333 15.109C5.54429 13.717 6.58093 12.5086 7.84549 11.5744C8.17296 11.3371 8.24633 10.8793 8.00948 10.5515C7.77262 10.2237 7.31502 10.1496 6.98683 10.386C5.7074 11.3399 4.62136 12.5287 3.78673 13.8889C3.09878 13.5337 2.79329 12.714 3.08097 11.9951C3.60663 10.4075 5.68345 8.72343 5.70422 8.7066C6.02013 8.45307 6.07071 7.99143 5.81717 7.67552C5.56364 7.3596 5.102 7.30902 4.78608 7.56256C3.78953 8.38094 2.92339 9.34628 2.21744 10.4254C1.8829 9.56943 1.94419 8.60932 2.38484 7.80283C3.22513 6.36193 4.34491 5.1035 5.6784 4.10146C6.59149 3.32015 7.52176 2.5818 8.43772 1.91006C8.81124 1.64363 9.25939 1.50202 9.71818 1.50543H17.8293C18.4127 1.50659 18.9721 1.73781 19.3862 2.1489L21.3735 4.13623C21.7845 4.55027 22.0156 5.10971 22.0166 5.6931L22.0166 12.755ZM15.5027 15.0075C15.4918 15.0708 15.4691 15.1314 15.4359 15.1863C15.4243 15.2025 15.4116 15.2178 15.3977 15.232C15.3888 15.2411 15.3767 15.2513 15.3651 15.2612C15.3558 15.2694 15.3449 15.2779 15.3337 15.2864C15.313 15.3017 15.2915 15.3158 15.2692 15.3286L15.2459 15.341C15.1179 15.4048 14.9809 15.449 14.8397 15.4721C14.8162 15.4765 14.7937 15.4811 14.7682 15.485C14.7195 15.4926 14.6647 15.4984 14.6091 15.5038C14.5504 15.5094 14.4877 15.5133 14.4208 15.5158C14.3829 15.5174 14.3461 15.5196 14.3054 15.5201C14.2896 15.5202 14.2691 15.5185 14.2528 15.5185L15.3713 14.0585C15.3781 14.0787 15.3827 14.0975 15.3892 14.1175C15.4176 14.206 15.4425 14.2922 15.4617 14.3743C15.4703 14.411 15.4763 14.4454 15.483 14.4805C15.4958 14.548 15.5055 14.6127 15.5113 14.674C15.5145 14.7071 15.517 14.7395 15.5181 14.7706C15.5198 14.8261 15.5174 14.8817 15.5107 14.9369C15.5079 14.9603 15.5071 14.9858 15.5027 15.0075V15.0075Z" fill="#656F86"/>
</svg>
