<svg width="66" height="66" viewBox="0 0 66 66" fill="none" xmlns="http://www.w3.org/2000/svg">
<g clip-path="url(#clip0)">
<path d="M14.3345 47.5876C10.5353 47.5876 7.44458 50.6784 7.44458 54.4776C7.44458 58.2763 10.5353 61.367 14.3345 61.367C18.1337 61.367 21.224 58.2763 21.224 54.4776C21.224 50.6784 18.1332 47.5876 14.3345 47.5876ZM14.3345 59.4067C11.6164 59.4067 9.40486 57.1952 9.40486 54.4776C9.40486 51.7595 11.6164 49.5479 14.3345 49.5479C17.0526 49.5479 19.2637 51.7595 19.2637 54.4776C19.2637 57.1952 17.0526 59.4067 14.3345 59.4067Z" fill="#6B83DA"/>
<path d="M65.934 32.8358L61.4958 21.3295C60.4601 18.6441 57.8306 16.8399 54.9523 16.8399H37.7574C37.2161 16.8399 36.7776 17.2785 36.7776 17.8198V40.3049H34.6929V22.4272C34.6929 22.4221 34.6934 22.4171 34.6934 22.4121C34.6934 22.407 34.6929 22.402 34.6929 22.397V14.7658C34.6929 14.2245 34.2543 13.7854 33.7125 13.7854H31.5448C32.3902 12.802 32.9033 11.5245 32.9033 10.1287C32.9033 7.03143 30.3836 4.51172 27.2863 4.51172C24.1891 4.51172 21.6693 7.03143 21.6693 10.1287V10.9807C20.9115 10.4429 19.9865 10.1252 18.9885 10.1252C17.9905 10.1252 17.066 10.4429 16.3082 10.9807V10.1287C16.3082 7.03143 13.7884 4.51172 10.6912 4.51172C7.59389 4.51172 5.07417 7.03143 5.07417 10.1287C5.07417 11.5245 5.58678 12.802 6.43272 13.7854H4.26498C3.72368 13.7854 3.28459 14.224 3.28459 14.7653V40.3049H0.980393C0.438583 40.3049 0 40.7434 0 41.2847V54.4775C0 55.0188 0.438583 55.4574 0.980393 55.4574H4.61394C5.15524 55.4574 5.59383 55.0188 5.59383 54.4775C5.59383 49.6576 9.51489 45.7365 14.3348 45.7365C19.1542 45.7365 23.0752 49.6576 23.0752 54.4775C23.0752 55.0188 23.5138 55.4574 24.0551 55.4574H41.469C42.0108 55.4574 42.4494 55.0188 42.4494 54.4775C42.4494 49.6576 46.3705 45.7365 51.1899 45.7365C53.0666 45.7365 54.8557 46.3227 56.3622 47.4305C56.7983 47.7512 57.4121 47.6581 57.7324 47.2215C58.0531 46.7854 57.96 46.1721 57.5234 45.8513C55.6779 44.4938 53.4875 43.7763 51.1899 43.7763C45.6192 43.7763 41.03 48.0538 40.5335 53.4971H38.7378V18.8002H54.9523C57.0259 18.8002 58.9207 20.1003 59.667 22.0349L64.0397 33.3711V53.4971H61.8468C61.6761 51.6098 61.0129 49.8172 59.9031 48.2638C59.5884 47.8232 58.9761 47.7215 58.5355 48.0357C58.0949 48.3504 57.9932 48.9627 58.3079 49.4033C59.3694 50.8893 59.9303 52.6441 59.9303 54.477C59.9303 55.0183 60.3694 55.4574 60.9107 55.4574H65.0196C65.5614 55.4574 66 55.0183 66 54.477V33.1883C66 33.068 65.9778 32.9486 65.934 32.8358ZM23.6296 23.3925H32.7326V40.3049H23.6296V23.3925ZM32.7326 21.4317H23.6296V15.7457H32.7326V21.4317ZM23.6296 10.1287C23.6296 8.11253 25.2702 6.472 27.2863 6.472C29.3025 6.472 30.943 8.11253 30.943 10.1287C30.943 12.1449 29.3025 13.7854 27.2863 13.7854H23.6296V10.1287ZM18.989 12.085C20.121 12.085 21.0888 12.7914 21.481 13.7854H16.4965C16.8892 12.7914 17.857 12.085 18.989 12.085ZM7.03445 10.1287C7.03445 8.11253 8.67499 6.472 10.6912 6.472C12.7073 6.472 14.3479 8.11253 14.3479 10.1287V13.7854H10.6912C8.67499 13.7854 7.03445 12.1449 7.03445 10.1287ZM14.3479 15.7457V21.4317H5.24487V15.7457H14.3479ZM5.24487 23.3925H14.3479V28.6796C14.3479 29.2214 14.787 29.66 15.3283 29.66C15.8696 29.66 16.3087 29.2214 16.3087 28.6796V15.7457H21.6693V40.3049H16.3087V32.0508C16.3087 31.509 15.8696 31.0704 15.3283 31.0704C14.787 31.0704 14.3479 31.509 14.3479 32.0508V40.3049H5.24487V23.3925ZM14.3348 43.7763C8.76462 43.7763 4.17435 48.0538 3.67836 53.4971H1.96028V42.2651H36.7776V53.4971H24.9907C24.4947 48.0538 19.9049 43.7763 14.3348 43.7763Z" fill="#6B83DA"/>
<path d="M61.4938 33.7437C61.6766 33.4768 61.7164 33.1379 61.6001 32.8363L57.7228 22.7852C57.2837 21.6482 56.1704 20.8838 54.9518 20.8838H41.8029C41.2616 20.8838 40.8225 21.3229 40.8225 21.8642V33.1893C40.8225 33.7306 41.2616 34.1692 41.8029 34.1692H60.6857C61.0089 34.1692 61.3111 34.0101 61.4938 33.7437ZM42.7828 32.2089V22.8441H54.9518C55.3658 22.8441 55.7444 23.1044 55.894 23.4911L59.2571 32.2089H42.7828Z" fill="#6B83DA"/>
<path d="M51.19 47.5876C47.3908 47.5876 44.3 50.6784 44.3 54.4776C44.3 58.2763 47.3908 61.367 51.19 61.367C54.9892 61.367 58.0799 58.2763 58.0799 54.4776C58.0799 50.6784 54.9892 47.5876 51.19 47.5876ZM51.19 59.4067C48.4719 59.4067 46.2608 57.1952 46.2608 54.4776C46.2608 51.7595 48.4719 49.5479 51.19 49.5479C53.9081 49.5479 56.1196 51.7595 56.1196 54.4776C56.1191 57.1952 53.9081 59.4067 51.19 59.4067Z" fill="#6B83DA"/>
</g>
<defs>
<clipPath id="clip0">
<rect width="66" height="66" fill="white"/>
</clipPath>
</defs>
</svg>
