<svg width="9" height="16" viewBox="0 0 9 16" fill="none" xmlns="http://www.w3.org/2000/svg">
<path d="M5.09716 11.4215C4.99052 10.9796 4.94787 10.5378 4.96919 10.0739C5.01185 8.41698 6.48341 7.62168 7.59242 6.7601C8.38152 6.14153 9 5.10321 9 3.75561C9 2.49638 8.57346 1.54643 7.74171 0.927857C6.90995 0.309286 5.88626 0 4.64929 0C2.70853 0 1.17299 0.795305 0 2.40801L1.38626 3.68933C2.17536 2.45219 3.32701 1.67898 4.5 1.67898C5.80095 1.67898 6.8673 2.45219 6.8673 3.88816C6.8673 5.45668 5.48104 6.18571 4.41469 7.06938C3.66825 7.66586 3.07109 8.68209 3.07109 9.9855C3.07109 10.5378 3.13507 11.0238 3.24171 11.4215H5.09716ZM5.20379 15.6189C5.71564 15.0887 5.71564 14.205 5.20379 13.6969C4.69194 13.1667 3.83886 13.1667 3.32701 13.6969C2.81517 14.205 2.81517 15.0887 3.32701 15.6189C3.83886 16.127 4.69194 16.127 5.20379 15.6189Z" fill="white"/>
</svg>
