<svg width="32" height="23" viewBox="0 0 32 23" fill="none" xmlns="http://www.w3.org/2000/svg">
<path d="M8.71685 10.5294C7.62724 10.5294 6.76703 10.7647 6.1362 11.1765C6.93907 7.94118 9.40502 5.11765 13.5914 2.82353L9.92115 0C7.56989 1.17647 5.27599 3.05882 3.15412 5.64706C1.03226 8.23529 0 11.1765 0 14.5294C0 19.7647 3.03943 23 7.56989 23C11.4122 23 14.2222 20.5882 14.2222 16.4118C14.2222 12.8824 12.2151 10.5294 8.71685 10.5294ZM26.4373 10.5294C25.3477 10.5294 24.4875 10.7647 23.8566 11.1765C24.6595 7.94118 27.1254 5.11765 31.3118 2.82353L27.6989 0C24.8889 1.41176 22.0215 3.58823 19.5556 7.88235C18.3513 10 17.7204 12.2353 17.7204 14.5294C17.7204 19.7647 20.7599 23 25.2903 23C29.19 23 32 20.5882 32 16.4118C32 12.8824 29.9355 10.5294 26.4373 10.5294Z" fill="#9FB4FF"/>
</svg>
