<svg width="20" height="24" viewBox="0 0 20 24" fill="none" xmlns="http://www.w3.org/2000/svg">
<path d="M14.0004 0.449273C13.6087 0.446713 13.2446 0.650484 13.0418 0.98567C12.4839 1.8753 11.5311 3.45187 10.6715 5.12267C10.1617 4.25747 9.69463 3.49657 9.32505 2.9078C9.0826 2.51978 8.65734 2.28404 8.1998 2.28404C7.74226 2.28404 7.317 2.51978 7.07456 2.9078C5.18823 5.91275 0.800049 13.3062 0.800049 17.0474C0.800049 20.6331 4.11975 23.5507 8.19998 23.5507C12.2802 23.5507 15.5996 20.6331 15.5996 17.0474C15.5792 16.3663 15.4755 15.6903 15.2908 15.0345C17.4691 14.6396 19.0885 12.7966 19.2 10.5856C19.2 8.01249 16.2341 3.01451 14.9669 0.998562C14.765 0.656981 14.3972 0.447955 14.0004 0.449273ZM8.19998 22.0841C4.92827 22.0841 2.26672 19.8246 2.26672 17.0474C2.26672 14.3397 5.3089 8.50523 8.19962 3.87463C11.0904 8.50452 14.1329 14.339 14.1329 17.0474C14.1329 19.8246 11.4713 22.0841 8.19998 22.0841ZM14.8616 13.6211C13.9498 11.2104 12.8422 8.87838 11.5498 6.64844C12.3469 4.99016 13.3299 3.31348 14.0008 2.22177C15.8552 5.23388 17.7333 8.88264 17.7333 10.5856C17.6135 12.1489 16.4158 13.4149 14.8616 13.621V13.6211Z" fill="#656F86"/>
</svg>
