<svg width="27" height="28" viewBox="0 0 27 28" fill="none" xmlns="http://www.w3.org/2000/svg">
<path d="M26.2706 14.9328C26.2716 14.5436 26.1169 14.1702 25.8409 13.8958L15.9903 4.04522L15.9889 4.04307L15.9799 4.03479L14.433 2.48796C14.2123 2.26813 13.9267 2.12512 13.6185 2.08007C11.3644 0.553831 9.44584 0.213836 8.47004 1.19138C7.57379 2.08763 7.7975 3.79739 9.02819 5.81884L1.46973 13.3773C0.781931 14.0648 0.395508 14.9975 0.395508 15.9699C0.395508 16.9424 0.781931 17.8751 1.46973 18.5626L9.76626 26.8595C11.1989 28.2894 13.5188 28.2894 14.9515 26.8595L25.8405 15.9701C26.1169 15.6958 26.2718 15.3222 26.2706 14.9328ZM9.50706 2.22835C9.74929 1.98554 10.6782 2.06588 12.0281 2.81895L10.0961 4.75098C9.33124 3.38811 9.262 2.47368 9.50706 2.22835ZM13.9146 25.8225C13.0548 26.6801 11.6631 26.6801 10.8033 25.8225L2.50673 17.5256C2.09405 17.113 1.8622 16.5534 1.8622 15.9699C1.8622 15.3864 2.09405 14.8268 2.50673 14.4143L9.86759 7.05343C10.3151 7.63725 10.8009 8.19072 11.3218 8.71019C11.9372 9.32781 12.6012 9.89504 13.3074 10.4064C13.2843 10.5312 13.2719 10.6577 13.2704 10.7845C13.2626 11.8233 13.9802 12.7269 14.9938 12.9545C16.0074 13.182 17.0425 12.6718 17.4794 11.7293C17.9163 10.7868 17.6367 9.66726 16.808 9.0408C15.9793 8.41434 14.826 8.45064 14.0383 9.12797C13.4434 8.68503 12.8821 8.19879 12.3588 7.67321C11.8374 7.15356 11.3546 6.59662 10.9142 6.00683L13.2767 3.64435C13.8703 4.08056 14.4303 4.56071 14.9519 5.08076L24.8039 14.9328L13.9146 25.8225ZM14.9516 10.266C15.1613 10.0562 15.4767 9.99343 15.7508 10.1069C16.0249 10.2204 16.2036 10.4879 16.2036 10.7845C16.2036 11.0812 16.0249 11.3486 15.7508 11.4621C15.4767 11.5756 15.1613 11.5128 14.9516 11.303C14.8136 11.1657 14.7361 10.9791 14.7361 10.7845C14.7361 10.5899 14.8136 10.4033 14.9516 10.266Z" fill="#656F86"/>
</svg>
