<svg width="57" height="57" viewBox="0 0 57 57" fill="none" xmlns="http://www.w3.org/2000/svg">
<path d="M41.6367 54.7734C41.344 54.7734 41.0566 54.8926 40.8496 55.0996C40.6426 55.3066 40.5234 55.594 40.5234 55.8867C40.5234 56.1794 40.6426 56.4668 40.8496 56.6738C41.0566 56.8808 41.344 57 41.6367 57C41.9294 57 42.2168 56.8808 42.4238 56.6738C42.6308 56.4668 42.75 56.1794 42.75 55.8867C42.75 55.594 42.6308 55.3066 42.4238 55.0996C42.2168 54.8926 41.9294 54.7734 41.6367 54.7734Z" fill="#6B83DA"/>
<path d="M52.3242 0H4.67578C2.0974 0 0 2.0974 0 4.67578V52.3242C0 54.9026 2.0974 57 4.67578 57H37.1836C37.7985 57 38.2969 56.5016 38.2969 55.8867C38.2969 55.2718 37.7985 54.7734 37.1836 54.7734H4.67578C3.32506 54.7734 2.22656 53.6749 2.22656 52.3242V4.67578C2.22656 3.32506 3.32506 2.22656 4.67578 2.22656H52.3242C53.6749 2.22656 54.7734 3.32506 54.7734 4.67578V52.3242C54.7734 53.6749 53.6749 54.7734 52.3242 54.7734H46.0898C45.4749 54.7734 44.9766 55.2718 44.9766 55.8867C44.9766 56.5016 45.4749 57 46.0898 57H52.3242C54.9026 57 57 54.9026 57 52.3242V4.67578C57 2.0974 54.9026 0 52.3242 0Z" fill="#6B83DA"/>
<path d="M10.9102 7.57031C11.5251 7.57031 12.0234 7.07195 12.0234 6.45703C12.0234 5.84212 11.5251 5.34375 10.9102 5.34375H6.45703C5.84212 5.34375 5.34375 5.84212 5.34375 6.45703V44.7539C5.34375 45.3688 5.84212 45.8672 6.45703 45.8672H50.543C51.1579 45.8672 51.6562 45.3688 51.6562 44.7539V6.45703C51.6562 5.84212 51.1579 5.34375 50.543 5.34375H19.8164C19.2015 5.34375 18.7031 5.84212 18.7031 6.45703C18.7031 7.07195 19.2015 7.57031 19.8164 7.57031H49.4297V35.6363C48.0855 33.9312 46.2186 32.657 44.0738 32.0555C45.311 30.8614 46.0829 29.1884 46.0829 27.3371V26.6105C46.0829 22.9927 43.1392 20.0495 39.5215 20.0495C35.9038 20.0495 32.9601 22.9927 32.9601 26.6105V27.3371C32.9601 29.188 33.732 30.8614 34.9692 32.0555C32.1438 32.8475 29.8025 34.8079 28.5 37.3797C27.1975 34.8079 24.8562 32.8475 22.0308 32.0555C23.268 30.8614 24.0399 29.1884 24.0399 27.3371V26.6105C24.0399 22.9927 21.0962 20.0495 17.4785 20.0495C13.8608 20.0495 10.9171 22.9927 10.9171 26.6105V27.3371C10.9171 29.188 11.689 30.8614 12.9262 32.0555C10.7814 32.657 8.91451 33.9312 7.57031 35.6363V7.57031H10.9102ZM35.1866 26.6105C35.1866 24.2204 37.1314 22.2761 39.5215 22.2761C41.9116 22.2761 43.8563 24.2204 43.8563 26.6105V27.3371C43.8563 29.7272 41.9116 31.6715 39.5215 31.6715C37.1314 31.6715 35.1866 29.7272 35.1866 27.3371V26.6105ZM37.7685 33.8981H41.274C45.7711 33.8981 49.4297 37.5567 49.4297 42.0533V43.6406H29.6133V42.0533C29.6133 37.5567 33.2719 33.8981 37.7685 33.8981ZM13.1437 26.6105C13.1437 24.2204 15.0884 22.2761 17.4785 22.2761C19.8686 22.2761 21.8134 24.2204 21.8134 26.6105V27.3371C21.8134 29.7272 19.8686 31.6715 17.4785 31.6715C15.0884 31.6715 13.1437 29.7272 13.1437 27.3371V26.6105ZM15.7255 33.8981H19.2311C23.7281 33.8981 27.3867 37.5567 27.3867 42.0533V43.6406H7.57031V42.0533C7.57031 37.5567 11.2289 33.8981 15.7255 33.8981Z" fill="#6B83DA"/>
<path d="M16.1504 7.24416C16.3574 7.03716 16.4766 6.7497 16.4766 6.45703C16.4766 6.16436 16.3574 5.87691 16.1504 5.66991C15.9434 5.46291 15.656 5.34375 15.3633 5.34375C15.0706 5.34375 14.7832 5.46291 14.5762 5.66991C14.3692 5.87691 14.25 6.16436 14.25 6.45703C14.25 6.7497 14.3692 7.03716 14.5762 7.24416C14.7832 7.45116 15.0706 7.57031 15.3633 7.57031C15.656 7.57031 15.9434 7.45116 16.1504 7.24416Z" fill="#6B83DA"/>
<path d="M25.0635 19.3524C26.449 20.634 27.8162 21.5677 27.8741 21.6068C28.0628 21.7355 28.2811 21.7995 28.4999 21.7995C28.7186 21.7995 28.9369 21.7351 29.1257 21.6068C29.1835 21.5677 30.5507 20.634 31.9363 19.3524C33.9802 17.4616 34.9739 15.846 34.9739 14.4131C34.9739 11.9261 33.0813 9.90259 30.7556 9.90259C29.9519 9.90259 29.1691 10.15 28.4999 10.6019C27.8306 10.15 27.0478 9.90259 26.2442 9.90259C23.9185 9.90259 22.0259 11.9256 22.0259 14.4131C22.0259 15.846 23.0196 17.4616 25.0635 19.3524ZM26.2442 12.1292C26.7778 12.1292 27.2796 12.3696 27.6579 12.8067C27.8693 13.0511 28.1768 13.1916 28.4999 13.1916C28.823 13.1916 29.1304 13.0511 29.3418 12.8067C29.7201 12.3696 30.222 12.1292 30.7556 12.1292C31.8536 12.1292 32.7473 13.1537 32.7473 14.4131C32.7473 15.6586 30.4011 17.9047 28.4994 19.3194C26.5977 17.9069 24.2524 15.6621 24.2524 14.4131C24.2524 13.1537 25.1461 12.1292 26.2442 12.1292Z" fill="#6B83DA"/>
</svg>
