<svg width="66" height="66" viewBox="0 0 66 66" fill="none" xmlns="http://www.w3.org/2000/svg">
<path d="M51.7917 17.6785H14.2085C13.6741 17.6785 13.241 18.1116 13.241 18.646C13.241 19.1805 13.6741 19.6136 14.2085 19.6136H51.7917C52.3261 19.6136 52.7592 19.1805 52.7592 18.646C52.7592 18.1116 52.3261 17.6785 51.7917 17.6785Z" fill="#6B83DA"/>
<path d="M51.7917 28.2134H14.2085C13.6741 28.2134 13.241 28.6465 13.241 29.181C13.241 29.7153 13.6741 30.1485 14.2085 30.1485H51.7917C52.3261 30.1485 52.7592 29.7154 52.7592 29.181C52.7592 28.6465 52.3261 28.2134 51.7917 28.2134Z" fill="#6B83DA"/>
<path d="M39.4702 35.0505H26.5298C25.9954 35.0505 25.5623 35.4837 25.5623 36.0181C25.5623 36.5524 25.9954 36.9857 26.5298 36.9857H39.4702C40.0047 36.9857 40.4378 36.5526 40.4378 36.0181C40.4378 35.4837 40.0047 35.0505 39.4702 35.0505Z" fill="#6B83DA"/>
<path d="M51.7916 22.9246H23.7579C23.2234 22.9246 22.7903 23.3577 22.7903 23.8921C22.7903 24.4264 23.2234 24.8597 23.7579 24.8597H51.7916C52.3261 24.8597 52.7592 24.4266 52.7592 23.8921C52.7592 23.3577 52.3261 22.9246 51.7916 22.9246Z" fill="#6B83DA"/>
<path d="M19.2562 22.9243H14.2085C13.6741 22.9243 13.241 23.3574 13.241 23.8919C13.241 24.4263 13.6741 24.8595 14.2085 24.8595H19.2562C19.7907 24.8595 20.2238 24.4263 20.2238 23.8919C20.2238 23.3576 19.7907 22.9243 19.2562 22.9243Z" fill="#6B83DA"/>
<path d="M61.005 16.043C60.7799 15.8219 60.482 15.7002 60.1643 15.7002C60.164 15.7002 60.1639 15.7002 60.1636 15.7002C58.2026 15.7002 56.5976 14.1673 56.5093 12.2097C56.4803 11.5732 55.9572 11.0747 55.3184 11.0747H10.4513C9.81245 11.0747 9.28922 11.5733 9.26035 12.2104C9.17617 14.0809 7.64489 15.6123 5.77421 15.6965C5.13741 15.7251 4.63867 16.2484 4.63867 16.8875V41.898C4.63867 42.5371 5.13741 43.0602 5.77421 43.0888C7.64489 43.1731 9.17617 44.7044 9.26035 46.5756C9.28935 47.2122 9.81258 47.7106 10.4513 47.7106H39.014C39.5484 47.7106 39.9815 47.2775 39.9815 46.7431C39.9815 46.2087 39.5484 45.7755 39.014 45.7755H11.1167C10.7167 43.445 8.90418 41.6324 6.57368 41.2323V17.5528C8.90418 17.1528 10.7167 15.3398 11.1167 13.0097H54.6534C55.0698 15.4138 57.0053 17.2696 59.4263 17.5872V34.0187C59.4263 34.553 59.8594 34.9863 60.3939 34.9863C60.9283 34.9863 61.3614 34.5532 61.3614 34.0187V16.8929C61.3614 16.5708 61.2348 16.2689 61.005 16.043Z" fill="#6B83DA"/>
<path d="M63.3142 6.24487H2.68576C1.20489 6.24487 0 7.44976 0 8.93063V49.8545C0 51.3355 1.20489 52.5403 2.68576 52.5403H43.2974L41.8596 55.5532C41.6749 55.94 41.7199 56.3937 41.9766 56.7368C42.2336 57.0801 42.6562 57.2506 43.0792 57.183L45.756 56.7527L47.2492 59.2036C47.4585 59.5475 47.8305 59.755 48.2303 59.755C48.2497 59.755 48.2693 59.7545 48.2889 59.7535C48.7107 59.7321 49.0857 59.482 49.2678 59.1007L51.8622 53.6643L54.4563 59.1003C54.6381 59.4816 55.0131 59.7319 55.435 59.7536C55.4547 59.7546 55.4745 59.7551 55.4941 59.7551C55.8939 59.7551 56.2659 59.5476 56.4752 59.2038L57.9684 56.7529L60.6452 57.1833C61.0695 57.2511 61.4914 57.0801 61.748 56.7367C62.0048 56.3933 62.0494 55.9398 61.8647 55.5536L60.4269 52.5406H63.3142C64.7951 52.5406 66 51.3359 66 49.8549V8.93063C66 7.44976 64.7951 6.24487 63.3142 6.24487ZM48.1466 56.9572L47.1338 55.295C46.8899 54.8946 46.4333 54.684 45.97 54.7584L44.2512 55.0347L46.0618 51.2408C46.7754 51.9689 47.7921 52.3624 48.8475 52.263C49.2083 52.2284 49.57 52.3256 49.8656 52.5356C49.963 52.605 50.0642 52.6665 50.1667 52.7245L48.1466 56.9572ZM52.0929 51.2199C52.09 51.2203 52.087 51.2205 52.0839 51.221C51.9372 51.2427 51.7881 51.2427 51.6414 51.2212C51.6377 51.2206 51.6339 51.2203 51.6303 51.2197C51.403 51.1846 51.1821 51.0975 50.9864 50.9585C50.4012 50.5423 49.7024 50.3211 48.9895 50.3211C48.8815 50.3211 48.7732 50.3263 48.6649 50.3365C48.0244 50.3969 47.4158 50.0452 47.1485 49.4609C47.0298 49.2016 46.8783 48.9616 46.7025 48.742C46.6947 48.7311 46.6862 48.7208 46.6781 48.7102C46.6683 48.6983 46.6592 48.6861 46.6494 48.6744C46.6381 48.6612 46.6264 48.6487 46.6144 48.6362C46.2945 48.2681 45.8991 47.9674 45.4489 47.7615C44.8645 47.4941 44.5127 46.8846 44.5733 46.2449C44.6512 45.4217 44.4304 44.5972 43.9514 43.9234C43.5789 43.3997 43.5789 42.6959 43.9512 42.1722C44.4304 41.4984 44.6512 40.6739 44.5733 39.8507C44.5127 39.211 44.8647 38.6015 45.4489 38.3341C46.2008 37.9901 46.8043 37.3866 47.1484 36.6347C47.4158 36.0503 48.0266 35.6984 48.6649 35.7591C49.489 35.8368 50.3128 35.616 50.9865 35.137C51.5104 34.7647 52.2141 34.7647 52.7377 35.137C53.4117 35.616 54.2355 35.8363 55.0593 35.7591C55.6996 35.6983 56.3087 36.0504 56.576 36.6347C56.9201 37.3866 57.5236 37.9901 58.2754 38.334C58.8598 38.6015 59.2117 39.211 59.1511 39.8506C59.0732 40.6739 59.294 41.4984 59.7731 42.1721C60.1455 42.6958 60.1455 43.3995 59.7731 43.9233C59.294 44.5972 59.0732 45.4217 59.1511 46.2447C59.2117 46.8845 58.8598 47.494 58.2753 47.7615C57.8261 47.9671 57.4316 48.2669 57.112 48.6339C57.0989 48.6476 57.086 48.6613 57.0739 48.6757C57.0655 48.6857 57.0576 48.6961 57.0493 48.7063C57.0396 48.7187 57.0298 48.7308 57.0208 48.7436C56.8455 48.9627 56.6944 49.2022 56.576 49.4609C56.3086 50.0452 55.6991 50.3972 55.0593 50.3365C54.2369 50.259 53.4119 50.4794 52.7377 50.9585C52.5418 51.0977 52.3206 51.1848 52.0929 51.2199ZM57.7543 54.7582C57.2908 54.6841 56.8345 54.8946 56.5905 55.2951L55.5778 56.9574L53.5577 52.7245C53.6602 52.6665 53.7613 52.605 53.8588 52.5356C54.1545 52.3255 54.5165 52.2281 54.8769 52.2629C55.9327 52.3624 56.9491 51.9689 57.6627 51.2408L59.4732 55.0346L57.7543 54.7582ZM64.065 49.8546C64.065 50.2685 63.7283 50.6054 63.3142 50.6054H59.5034L59.0045 49.5599C59.0297 49.5467 59.0547 49.5327 59.0807 49.5209C60.4131 48.911 61.2155 47.5212 61.0775 46.0625C61.0433 45.7015 61.1401 45.3399 61.3502 45.0444C62.1992 43.85 62.1992 42.2452 61.3501 41.0508C61.1401 40.7554 61.0433 40.3939 61.0775 40.0329C61.2155 38.5742 60.4131 37.1843 59.0806 36.5745C58.751 36.4235 58.4863 36.1589 58.3354 35.8292C57.7256 34.4967 56.3351 33.6946 54.8768 33.8325C54.5156 33.8669 54.1543 33.7698 53.8588 33.5597C52.6645 32.7107 51.0595 32.7106 49.8653 33.5597C49.5697 33.7698 49.2074 33.8669 48.8474 33.8324C47.3868 33.6949 45.9985 34.4967 45.3889 35.8291C45.238 36.1589 44.9733 36.4234 44.6436 36.5743C43.3112 37.1842 42.5088 38.5739 42.6468 40.0327C42.681 40.3938 42.5842 40.7553 42.3741 41.0508C41.5251 42.2452 41.5251 43.85 42.3741 45.0442C42.5842 45.3397 42.681 45.7013 42.6468 46.0623C42.5088 47.5212 43.3112 48.911 44.6436 49.5208C44.6696 49.5326 44.6945 49.5465 44.7196 49.5598L44.2208 50.6054H2.68576C2.27184 50.6054 1.93501 50.2687 1.93501 49.8546V8.93063C1.93501 8.51672 2.27171 8.17988 2.68576 8.17988H63.3142C63.7282 8.17988 64.065 8.51672 64.065 8.93063V49.8546Z" fill="#6B83DA"/>
<path d="M51.7917 37.0364C48.477 37.0364 45.7803 39.7331 45.7803 43.0477C45.7803 46.3623 48.477 49.0591 51.7917 49.0591C55.1064 49.0591 57.803 46.3622 57.803 43.0477C57.803 39.733 55.1064 37.0364 51.7917 37.0364ZM51.7917 47.1239C49.544 47.1239 47.7153 45.2953 47.7153 43.0475C47.7153 40.7999 49.544 38.9713 51.7917 38.9713C54.0393 38.9713 55.868 40.7999 55.868 43.0475C55.868 45.2953 54.0393 47.1239 51.7917 47.1239Z" fill="#6B83DA"/>
</svg>
