<svg width="66" height="58" viewBox="0 0 66 58" fill="none" xmlns="http://www.w3.org/2000/svg">
<path fill-rule="evenodd" clip-rule="evenodd" d="M44.8806 4.63828C45.7159 3.95569 46.9358 4.08518 47.6053 4.9275L64.7875 26.545C65.457 27.3874 65.3226 28.6235 64.4872 29.3061L30.6099 56.9888C29.9265 57.5471 28.9286 57.4412 28.3809 56.7522L29.8935 55.5162C29.7716 55.3629 29.5496 55.3394 29.3976 55.4636L63.275 27.781L46.0928 6.16344L42.2482 9.30506L41.0359 7.7799L44.8806 4.63828Z" fill="#6B83DA"/>
<path fill-rule="evenodd" clip-rule="evenodd" d="M28.227 1.65175C28.795 0.739516 29.9929 0.472063 30.9027 1.05438L54.0438 15.8659C54.9536 16.4482 55.2307 17.6598 54.6628 18.572L31.5498 55.6968C31.0193 56.5489 29.9005 56.7987 29.0507 56.2548L30.079 54.603C30.019 54.5646 29.9399 54.5822 29.9024 54.6424L53.0154 17.5176L29.8744 2.70614L27.0688 7.21253L25.4215 6.15814L28.227 1.65175Z" fill="#6B83DA"/>
<path fill-rule="evenodd" clip-rule="evenodd" d="M13.3589 4.29851C13.6512 3.26719 14.7311 2.67675 15.7709 2.97972L42.062 10.6404C43.1018 10.9433 43.7077 12.025 43.4154 13.0563L31.3436 55.6498C31.1267 56.415 30.3058 56.8338 29.5479 56.5661L30.1828 54.7328C29.8781 54.6251 29.5481 54.7935 29.4609 55.1012L41.5328 12.5077L15.2416 4.84708L13.4063 11.3226L11.5236 10.774L13.3589 4.29851Z" fill="#6B83DA"/>
<path fill-rule="evenodd" clip-rule="evenodd" d="M0 11.468C0 10.397 0.878795 9.52881 1.96284 9.52881H29.3141C30.3981 9.52881 31.2769 10.397 31.2769 11.468V55.2561C31.2769 56.327 30.3981 57.1952 29.3141 57.1952H1.96285C0.878797 57.1952 0 56.327 0 55.2561V11.468ZM29.3141 11.468H1.96284V55.2561H29.3141V11.468Z" fill="#6B83DA"/>
<path fill-rule="evenodd" clip-rule="evenodd" d="M22.5048 46.9233C21.4207 46.9233 20.5419 47.7915 20.5419 48.8625C20.5419 49.9335 21.4207 50.8017 22.5048 50.8017C23.5888 50.8017 24.4676 49.9335 24.4676 48.8625C24.4676 47.7915 23.5888 46.9233 22.5048 46.9233ZM18.5791 48.8625C18.5791 46.7205 20.3367 44.9841 22.5048 44.9841C24.6729 44.9841 26.4305 46.7205 26.4305 48.8625C26.4305 51.0044 24.6729 52.7408 22.5048 52.7408C20.3367 52.7408 18.5791 51.0044 18.5791 48.8625Z" fill="#6B83DA"/>
</svg>
