<svg width="16" height="16" viewBox="0 0 16 16" fill="none" xmlns="http://www.w3.org/2000/svg">
<path d="M5.0386 11.159C6.63127 12.8519 8.72167 14.1464 10.9116 14.8434C12.7033 15.3413 14.0969 14.5447 14.3955 13.9472C14.6942 13.2502 14.8932 12.5531 14.9928 11.856C15.1919 10.7607 11.2102 9.16738 10.613 10.2628C10.4139 10.5615 10.3143 11.4577 9.31889 10.8602C7.82576 9.56571 6.43222 8.1716 5.13818 6.6779C4.64047 5.68211 5.43678 5.58251 5.73541 5.38335C6.73083 4.88545 5.23772 0.902256 4.14277 1.00184C3.84414 1.00184 2.45052 1.49974 2.05235 1.59932C1.4551 1.89806 0.658808 3.29218 1.15652 5.08462C2.05239 7.37496 3.3464 9.36656 5.0386 11.159Z" stroke="#6B83DA" stroke-width="1.5"/>
</svg>
