<svg width="24" height="14" viewBox="0 0 24 14" fill="none" xmlns="http://www.w3.org/2000/svg">
<path fill-rule="evenodd" clip-rule="evenodd" d="M22.4952 1.81256C22.6481 1.34417 22.4952 1 21.7673 1H19.3605C18.7485 1 18.4664 1.29732 18.3134 1.62517C18.3134 1.62517 17.0895 4.3652 15.3556 6.14503C14.7946 6.66024 14.5396 6.82416 14.2336 6.82416C14.0807 6.82416 13.8512 6.66024 13.8512 6.19189V1.81256C13.8512 1.2505 13.6816 1 13.1716 1H9.38945C9.00703 1 8.77703 1.26087 8.77703 1.5081C8.77703 2.04093 9.64393 2.1638 9.73328 3.66264V6.91788C9.73328 7.63158 9.59295 7.76097 9.28696 7.76097C8.47104 7.76097 6.48631 5.0087 5.30919 1.85938C5.0785 1.24726 4.84712 1 4.23201 1H1.8252C1.13754 1 1 1.29732 1 1.62517C1 2.21066 1.81596 5.11462 4.79925 8.95531C6.7881 11.5782 9.59025 13 12.1401 13C13.67 13 13.8592 12.6842 13.8592 12.1403V10.1579C13.8592 9.52632 14.0042 9.40027 14.4886 9.40027C14.8456 9.40027 15.4576 9.5642 16.8855 10.8288C18.5174 12.3276 18.7864 13 19.7043 13H22.1112C22.7988 13 23.1426 12.6842 22.9443 12.061C22.7272 11.4399 21.9481 10.5388 20.9143 9.47052C20.3533 8.86164 19.5118 8.20593 19.2568 7.878C18.8999 7.45651 19.0019 7.26912 19.2568 6.89445C19.2568 6.89445 22.1892 3.10058 22.4952 1.81256Z" stroke="#9FB4FF" stroke-width="1.5" stroke-linecap="square" stroke-linejoin="round"/>
</svg>
